<svg width="25" height="24" viewBox="0 0 25 24" fill="none" xmlns="http://www.w3.org/2000/svg">
<g id="socials-icon/dark/default/instagram">
<path id="Subtract" d="M9.00077 11.7445C9.00077 9.95069 10.4554 8.4961 12.2504 8.4961C14.0453 8.4961 15.5008 9.95069 15.5008 11.7445C15.5008 13.5384 14.0453 14.993 12.2504 14.993C10.4554 14.993 9.00077 13.5384 9.00077 11.7445ZM7.24367 11.7445C7.24367 14.5081 9.48516 16.7482 12.2504 16.7482C15.0156 16.7482 17.2571 14.5081 17.2571 11.7445C17.2571 8.98099 15.0156 6.74084 12.2504 6.74084C9.48516 6.74084 7.24367 8.98099 7.24367 11.7445ZM16.2852 6.54244C16.2852 6.77371 16.3537 6.99982 16.4822 7.19217C16.6107 7.38452 16.7933 7.53447 17.0071 7.62306C17.2209 7.71165 17.4561 7.7349 17.6831 7.68987C17.9101 7.64485 18.1186 7.53356 18.2823 7.37009C18.446 7.20662 18.5575 6.99831 18.6028 6.77149C18.648 6.54468 18.6249 6.30955 18.5364 6.09585C18.448 5.88214 18.2981 5.69946 18.1057 5.57089C17.9134 5.44232 17.6872 5.37365 17.4558 5.37356H17.4553C17.1451 5.37371 16.8476 5.49689 16.6283 5.71605C16.4089 5.93521 16.2855 6.23243 16.2852 6.54244ZM8.31122 19.6764C7.36059 19.6331 6.8439 19.4748 6.50053 19.3412C6.0453 19.164 5.7205 18.9531 5.379 18.6123C5.0375 18.2714 4.82612 17.9471 4.64967 17.4922C4.51582 17.1492 4.35747 16.6326 4.31426 15.6826C4.26699 14.6554 4.25755 14.3469 4.25755 11.7446C4.25755 9.14236 4.26777 8.83467 4.31426 7.80666C4.35755 6.8566 4.51707 6.34108 4.64967 5.99706C4.8269 5.5421 5.03797 5.21749 5.379 4.8762C5.72003 4.53491 6.04452 4.32364 6.50053 4.14731C6.84374 4.01353 7.36059 3.85528 8.31122 3.8121C9.33899 3.76485 9.64772 3.75542 12.2504 3.75542C14.853 3.75542 15.1621 3.76563 16.1907 3.8121C17.1413 3.85536 17.6572 4.01478 18.0014 4.14731C18.4566 4.32364 18.7814 4.53537 19.1229 4.8762C19.4644 5.21702 19.675 5.5421 19.8522 5.99706C19.9861 6.34006 20.1444 6.8566 20.1877 7.80666C20.2349 8.83467 20.2444 9.14236 20.2444 11.7446C20.2444 14.3469 20.2349 14.6546 20.1877 15.6826C20.1444 16.6326 19.9852 17.149 19.8522 17.4922C19.675 17.9471 19.4639 18.2717 19.1229 18.6123C18.7819 18.9528 18.4566 19.164 18.0014 19.3412C17.6582 19.4749 17.1413 19.6332 16.1907 19.6764C15.1629 19.7236 14.8542 19.733 12.2504 19.733C9.64655 19.733 9.33867 19.7236 8.31122 19.6764ZM8.23048 2.05901C7.1925 2.10625 6.48321 2.27074 5.86379 2.51163C5.22229 2.76039 4.67924 3.09412 4.13657 3.6356C3.5939 4.17709 3.26083 4.72068 3.01192 5.36179C2.77089 5.98123 2.6063 6.6897 2.55903 7.72706C2.51098 8.76607 2.49998 9.09824 2.49998 11.7445C2.49998 14.3908 2.51098 14.723 2.55903 15.762C2.6063 16.7995 2.77089 17.5079 3.01192 18.1273C3.26083 18.768 3.59398 19.3122 4.13657 19.8535C4.67916 20.3947 5.22229 20.728 5.86379 20.9775C6.48438 21.2183 7.1925 21.3828 8.23048 21.4301C9.27066 21.4773 9.60248 21.4891 12.2504 21.4891C14.8983 21.4891 15.2306 21.4781 16.2703 21.4301C17.3083 21.3828 18.0171 21.2183 18.637 20.9775C19.2781 20.728 19.8215 20.395 20.3642 19.8535C20.9068 19.312 21.2392 18.768 21.4888 18.1273C21.7299 17.5079 21.8952 16.7994 21.9417 15.762C21.989 14.7222 22 14.3908 22 11.7445C22 9.09824 21.989 8.76607 21.9417 7.72706C21.8944 6.68962 21.7299 5.98084 21.4888 5.36179C21.2392 4.72107 20.906 4.17794 20.3642 3.6356C19.8224 3.09326 19.2781 2.76039 18.6377 2.51163C18.0171 2.27074 17.3083 2.10547 16.271 2.05901C15.2314 2.01177 14.899 2 12.2512 2C9.60326 2 9.27066 2.01099 8.23048 2.05901Z" fill="#5C5F66"/>
</g>
</svg>
