<svg width="25" height="24" viewBox="0 0 25 24" fill="none" xmlns="http://www.w3.org/2000/svg">
<g id="socials-icon/dark/default/Linkedin">
<path id="Subtract" fill-rule="evenodd" clip-rule="evenodd" d="M3.94116 2C3.14547 2 2.49998 2.62583 2.49998 3.39684V20.1036C2.49998 20.8747 3.14554 21.5 3.94116 21.5H20.5588C21.3548 21.5 22 20.8746 22 20.1034V3.39684C22 2.62583 21.3548 2 20.5588 2H3.94116ZM8.42569 9.54002V18.319H5.5077V9.54002H8.42569ZM8.61802 6.82502C8.61802 7.66748 7.98465 8.34161 6.9673 8.34161L6.94818 8.34153C5.96884 8.34153 5.3357 7.66741 5.3357 6.82495C5.3357 5.96337 5.98796 5.30806 6.98665 5.30806C7.98465 5.30806 8.59898 5.96337 8.61802 6.82502ZM12.9586 18.319H10.0408C10.0408 18.319 10.0791 10.3639 10.041 9.54032H12.9588V10.7829C13.3467 10.1849 14.0409 9.3342 15.5887 9.3342C17.5084 9.3342 18.9478 10.589 18.9478 13.2854V18.319H16.0301V13.623C16.0301 12.4427 15.6076 11.6377 14.552 11.6377C13.7457 11.6377 13.2656 12.1806 13.0547 12.705C12.9776 12.8922 12.9586 13.1549 12.9586 13.4169V18.319Z" fill="#5C5F66"/>
</g>
</svg>
