<svg width="25" height="24" viewBox="0 0 25 24" fill="none" xmlns="http://www.w3.org/2000/svg">
<g id="socials-icon/dark/default/Twitter">
<path id="Subtract" d="M21.9133 5.93098C21.2825 6.20244 20.6194 6.39148 19.9403 6.4934C20.2578 6.43898 20.7249 5.86748 20.9109 5.63616C21.1934 5.28723 21.4087 4.88891 21.5459 4.46142C21.5459 4.42967 21.5776 4.38431 21.5459 4.36163C21.5299 4.3529 21.512 4.34832 21.4937 4.34832C21.4755 4.34832 21.4576 4.3529 21.4416 4.36163C20.7042 4.76096 19.9193 5.06574 19.1057 5.26877C19.0773 5.27743 19.0472 5.27821 19.0184 5.27102C18.9896 5.26383 18.9634 5.24894 18.9424 5.22795C18.8791 5.15253 18.8109 5.08132 18.7383 5.01477C18.4064 4.71743 18.0299 4.47407 17.6225 4.2936C17.0726 4.06798 16.4786 3.97027 15.8854 4.00785C15.3097 4.0442 14.7478 4.19859 14.2344 4.46142C13.7288 4.73851 13.2845 5.11495 12.9281 5.56812C12.5532 6.03455 12.2826 6.57585 12.1343 7.15561C12.0121 7.70709 11.9983 8.27706 12.0935 8.83382C12.0935 8.92907 12.0935 8.94268 12.0119 8.92907C8.77794 8.45282 6.12456 7.30529 3.9565 4.84241C3.86125 4.73356 3.81136 4.73356 3.73425 4.84241C2.79083 6.27569 3.24894 8.54354 4.42821 9.66385C4.58696 9.81353 4.75025 9.95867 4.9226 10.0947C4.38191 10.0564 3.85443 9.90983 3.3714 9.66385C3.28069 9.60489 3.23079 9.63664 3.22626 9.74549C3.2134 9.89641 3.2134 10.0481 3.22626 10.1991C3.3209 10.9223 3.60593 11.6075 4.05221 12.1844C4.49848 12.7614 5.08999 13.2095 5.76624 13.4829C5.9311 13.5535 6.10287 13.6067 6.27878 13.6416C5.77823 13.7402 5.26485 13.7555 4.75932 13.687C4.65046 13.6643 4.60964 13.7233 4.65046 13.8276C5.31721 15.6419 6.76409 16.1952 7.82544 16.5037C7.97059 16.5263 8.11573 16.5263 8.27901 16.5626C8.27901 16.5626 8.27901 16.5626 8.2518 16.5898C7.93884 17.1613 6.67338 17.5469 6.09281 17.7464C5.03313 18.1271 3.90331 18.2726 2.78176 18.1728C2.60487 18.1456 2.56405 18.1501 2.51869 18.1728C2.47333 18.1955 2.51869 18.2454 2.56858 18.2907C2.79537 18.4404 3.02215 18.5719 3.25801 18.6989C3.96015 19.0819 4.70246 19.3861 5.47142 19.6061C9.45376 20.7037 13.935 19.8964 16.924 16.9255C19.2735 14.5941 20.099 11.3783 20.099 8.158C20.099 8.03554 20.2487 7.96297 20.3349 7.89947C20.9293 7.43633 21.4533 6.88937 21.8906 6.27569C21.9663 6.18421 22.0052 6.06774 21.9995 5.94912C21.9995 5.88109 21.9995 5.89469 21.9133 5.93098Z" fill="#5C5F66"/>
</g>
</svg>
